<?xml version="1.0" encoding="UTF-8" standalone="no"?>
<!-- Created with Inkscape (http://www.inkscape.org/) -->

<svg
   xmlns:dc="http://purl.org/dc/elements/1.1/"
   xmlns:cc="http://creativecommons.org/ns#"
   xmlns:rdf="http://www.w3.org/1999/02/22-rdf-syntax-ns#"
   xmlns:svg="http://www.w3.org/2000/svg"
   xmlns="http://www.w3.org/2000/svg"
   xmlns:xlink="http://www.w3.org/1999/xlink"
   xmlns:sodipodi="http://sodipodi.sourceforge.net/DTD/sodipodi-0.dtd"
   xmlns:inkscape="http://www.inkscape.org/namespaces/inkscape"
   width="744.09448819"
   height="1052.3622047"
   id="svg2"
   version="1.1"
   inkscape:version="0.48.4 r9939"
   sodipodi:docname="nanocopter_frame.svg">
  <sodipodi:namedview
     id="base"
     pagecolor="#ffffff"
     bordercolor="#666666"
     borderopacity="1.0"
     inkscape:pageopacity="0.0"
     inkscape:pageshadow="2"
     inkscape:zoom="2.3302304"
     inkscape:cx="263.14603"
     inkscape:cy="552.69055"
     inkscape:document-units="px"
     inkscape:current-layer="layer5"
     showgrid="false"
     inkscape:window-width="1916"
     inkscape:window-height="1044"
     inkscape:window-x="0"
     inkscape:window-y="34"
     inkscape:window-maximized="0"
     showguides="true"
     inkscape:guide-bbox="true"
     inkscape:snap-object-midpoints="true">
    <sodipodi:guide
       orientation="1,0"
       position="135.03494,639.67113"
       id="guide3459" />
    <sodipodi:guide
       orientation="0,1"
       position="63.420904,506.15344"
       id="guide4270" />
    <sodipodi:guide
       orientation="1,0"
       position="165.07642,617.21587"
       id="guide3013" />
    <sodipodi:guide
       orientation="1,0"
       position="459.18206,651.86687"
       id="guide4013" />
  </sodipodi:namedview>
  <defs
     id="defs4" />
  <metadata
     id="metadata7">
    <rdf:RDF>
      <cc:Work
         rdf:about="">
        <dc:format>image/svg+xml</dc:format>
        <dc:type
           rdf:resource="http://purl.org/dc/dcmitype/StillImage" />
        <dc:title />
      </cc:Work>
    </rdf:RDF>
  </metadata>
  <g
     style="display:inline"
     inkscape:label="CarbonSheet"
     id="layer2"
     inkscape:groupmode="layer">
    <path
       inkscape:connector-curvature="0"
       id="Selection"
       d="m 19.176851,615.62564 c 0.528111,-26.6223 1.72584,-53.19657 2.190632,-79.80691 0.854657,-18.7425 -0.477532,-37.73775 2.711297,-56.2103 -0.813537,-23.0418 1.367794,-46.2135 -0.580883,-69.1749 1.219481,-6.65621 -3.44526,-19.52578 5.941831,-20.2678 28.219483,1.30286 56.510505,0.81288 84.676512,2.25447 17.26329,0.17085 34.60665,0.34745 51.98588,0.70324 12.73055,0.94396 25.58885,0.33147 38.55622,0.99031 31.74825,1.19272 63.6177,1.82546 95.39957,3.28782 17.80552,0.63278 35.52227,1.90165 53.2927,2.15532 14.89262,2.23983 29.95382,0.9959 45.07778,2.16242 14.25503,-1.51088 28.58173,-0.98122 42.8114,-0.35983 13.35505,-0.62809 26.7102,0.10852 40.13245,-0.26076 10.70634,-3.06039 13.01018,6.4259 11.86134,15.07932 -0.34945,33.59141 0.49465,67.07378 0.76549,100.58427 -1.54312,7.15505 2.65618,17.87925 -3.70754,22.24782 -22.77105,-0.21119 -45.60095,-0.84654 -68.28793,-0.62403 -9.58893,0.21847 -19.15909,0.80073 -28.79107,0.0286 -18.03189,0.36027 -35.91574,0.36851 -53.88982,0.2579 -18.47996,-0.1243 -37.08219,-0.44638 -55.62995,-0.058 -15.02458,-0.0564 -30.24832,0.15858 -45.24132,0.36376 -6.5494,1.62953 -19.22923,-2.94468 -20.19316,6.00539 -0.90228,23.46428 0.81234,46.7184 -0.14944,70.15062 -1.00521,8.21908 1.43733,16.98717 -0.98286,24.96838 -24.01701,1.51429 -48.25787,0.66911 -72.41475,0.95399 -41.23909,-0.37659 -82.440705,0.95354 -123.650365,0.006 -5.613945,-4.94164 -3.27095,-18.73881 -1.884014,-25.43658 z M 225.52055,398.41829 c 1.09491,-0.34343 -0.45347,-0.60913 0,0 z m 246.58648,32.86169 c 19.05589,-15.58136 -21.46314,-21.88232 -10.304,-1.81365 2.71912,2.45692 6.90534,3.38845 10.304,1.81365 z"
       style="fill:none;stroke:#000000;stroke-width:0.33010238" />
  </g>
  <g
     style="display:none"
     inkscape:label="Arduino_nano_contour"
     id="layer3"
     inkscape:groupmode="layer">
    <path
       d="m 105.81483,482.48758 c 0,0 1.17242,-0.11717 1.17242,-0.11717 0.55495,3e-5 0.85978,0.16639 1.95404,0.11713 0,0 1.95402,-0.12778 1.95402,-0.12778 0,0 1.56322,0.10916 1.56322,0.10916 0,0 1.04213,-0.0959 1.04213,-0.0959 0.5276,0.024 0.69955,0.14375 1.43297,0.11446 0,0 1.17242,-0.11848 1.17242,-0.11848 0,0 3.64752,-1e-5 3.64752,-1e-5 0,0 7.03446,1e-5 7.03446,1e-5 0,0 37.25679,-1e-5 37.25679,-1e-5 0,0 3.90807,1e-5 3.90807,1e-5 0,0 1.30269,0 1.30269,0 0,0 3.38697,-1e-5 3.38697,-1e-5 0,0 1.95401,0.12378 1.95401,0.12378 0,0 8.98854,10e-6 8.98854,10e-6 0.71257,0.009 2.34613,0.0639 2.83724,0.56314 0.52369,0.53132 0.51197,1.27166 0.60446,1.96675 0.14589,1.09055 0.20061,2.22755 0.20582,3.32876 0,0 0.13027,2.13036 0.13027,2.13036 0,0 0,3.46193 0,3.46193 0,0 0.12636,1.86421 0.12636,1.86421 0,0 -0.12376,1.73089 -0.12376,1.73089 0,0 0.12766,1.86418 0.12766,1.86418 0,0 0,34.61942 0,34.61942 0,0 0,8.52158 0,8.52158 -0.009,0.78296 -0.0574,1.79761 -0.66566,2.34489 -0.97179,0.87477 -3.03005,0.56992 -4.28454,0.58455 0,0 -1.17242,0.088 -1.17242,0.088 0,0 -1.04214,-0.0747 -1.04214,-0.0747 0,0 -1.56323,0.11984 -1.56323,0.11984 0,0 -6.38314,10e-6 -6.38314,10e-6 0,0 -2.21457,0.1464 -2.21457,0.1464 0,0 -7.9464,-10e-6 -7.9464,-10e-6 0,0 -3.12645,0 -3.12645,0 0,0 -0.91186,10e-6 -0.91186,10e-6 0,0 -1.17241,0 -1.17241,0 0,0 -1.95402,0.11981 -1.95402,0.11981 0,0 -14.72034,10e-6 -14.72034,10e-6 0,0 -2.99619,-10e-6 -2.99619,-10e-6 0,0 -1.95403,0.12779 -1.95403,0.12779 0,0 -1.69348,-0.1278 -1.69348,-0.1278 0,0 -2.47508,2e-5 -2.47508,2e-5 0,0 -1.56326,0.12911 -1.56326,0.12911 0,0 -1.82373,-0.12912 -1.82373,-0.12912 0,0 -2.73565,0.13312 -2.73565,0.13312 0,0 -18.1073,0 -18.1073,0 0,0 -0.78163,-10e-6 -0.78163,-10e-6 0,0 -1.95401,-0.13178 -1.95401,-0.13178 0,0 -1.69349,0.13045 -1.69349,0.13045 0,0 -1.6935,-0.13177 -1.6935,-0.13177 0,0 -15.632217,-10e-6 -15.632217,-10e-6 -0.736012,-10e-4 -2.561077,-0.0652 -3.071729,-0.58845 -0.583602,-0.59522 -0.315249,-1.46474 -0.315251,-2.20775 0,0 -0.130269,-1.86403 -0.130269,-1.86403 0,0 2e-6,-3.19562 2e-6,-3.19562 0,0 -0.13027,-1.99736 -0.13027,-1.99736 0,0 -10e-7,-6.12491 -10e-7,-6.12491 0,0 -0.130266,-1.99735 -0.130266,-1.99735 0,0 -10e-7,-11.5842 -10e-7,-11.5842 0,0 -0.12897,-1.99721 -0.12897,-1.99721 0,0 0.12245,-1.1984 0.12245,-1.1984 0,0 0,-1.99719 0,-1.99719 0,0 -0.100298,-1.59789 -0.100298,-1.59789 0,0 0.106818,-1.46457 0.106818,-1.46457 0,0 0,-10.51907 0,-10.51907 0,0 0.130269,-1.99722 0.130269,-1.99722 0,0 -10e-7,-6.1249 -10e-7,-6.1249 0,0 0.12506,-1.33158 0.12506,-1.33158 0,0 -10e-7,-1.86409 -10e-7,-1.86409 0,0 0.130268,-1.46468 0.130268,-1.46468 0.02477,-0.56457 -0.108127,-1.37285 0.321755,-1.79628 0.427285,-0.4207 1.705218,-0.46593 2.288829,-0.46725 0,0 12.766313,1e-5 12.766313,1e-5 0,0 6.6437,-0.0772 6.6437,-0.0772 0,0 1.95402,0.0719 1.95402,0.0719 z m 9.77015,0.70828 c 0,0 -5.86208,0 -5.86208,0 0,0 -18.367862,1e-5 -18.367862,1e-5 0,0 -4.55939,-1e-5 -4.55939,-1e-5 0,0 -1.432959,1e-5 -1.432959,1e-5 -0.336084,0.0293 -0.397306,-0.024 -0.781611,-1e-5 0,0 -0.781609,1e-5 -0.781609,1e-5 -0.930121,0.13445 -1.281843,0.0306 -1.302684,1.16112 0,0 0,1.59788 0,1.59788 0,0 -0.130268,2.26351 -0.130268,2.26351 0,0 -0.130267,1.99721 -0.130267,1.99721 0,0 0,5.85875 0,5.85875 0,0 -0.130271,2.2635 -0.130271,2.2635 0,0 2e-6,22.63577 2e-6,22.63577 0,0 0.130269,2.26369 0.130269,2.26369 0,0 -0.128969,2.13035 -0.128969,2.13035 0,0 -10e-7,2.26348 -10e-7,2.26348 0,0 0.128969,1.86421 0.128969,1.86421 0,0 0,5.32597 0,5.32597 0,0 0.130269,1.99736 0.130269,1.99736 0,0 -2e-6,2.26349 -2e-6,2.26349 0,0 0.13027,1.99738 0.13027,1.99738 0,0 10e-7,2.52981 10e-7,2.52981 9.59e-4,0.35154 -0.04296,0.84955 0.208421,1.12385 0.356935,0.39014 2.228902,0.47271 2.787742,0.47404 0,0 19.67055,-10e-6 19.67055,-10e-6 0,0 3.77779,2e-5 3.77779,2e-5 0,0 2.08428,0.12917 2.08428,0.12917 0,0 4.81995,-10e-6 4.81995,-10e-6 0,0 2.08428,-0.12383 2.08428,-0.12383 0,0 1.56324,0.12783 1.56324,0.12783 0,0 3.2567,-0.14515 3.2567,-0.14515 0,0 22.40618,1e-5 22.40618,1e-5 0,0 1.30269,0 1.30269,0 0,0 1.30268,-1e-5 1.30268,-1e-5 0,0 4.42911,2e-5 4.42911,2e-5 0,0 1.95405,-0.12118 1.95405,-0.12118 0,0 13.93872,-2e-5 13.93872,-2e-5 0,0 1.95403,-0.13314 1.95403,-0.13314 0,0 7.94639,-10e-6 7.94639,-10e-6 0,0 1.56322,-0.12782 1.56322,-0.12782 0,0 2.08428,0 2.08428,0 0,0 1.82375,-0.13449 1.82375,-0.13449 0,0 1.30268,0.12383 1.30268,0.12383 0.62922,0.0253 1.44208,-0.0985 1.80161,-0.70439 0.1902,-0.32225 0.14462,-0.90016 0.1889,-1.28766 0,0 0.0938,-1.86402 0.0938,-1.86402 0,0 0.13026,-1.99737 0.13026,-1.99737 0,0 0,-20.23891 0,-20.23891 0,0 0,-11.18472 0,-11.18472 0,0 -0.13025,-1.99737 -0.13025,-1.99737 0,0 -1e-5,-4.3939 -1e-5,-4.3939 0,0 -0.13026,-2.26363 -0.13026,-2.26363 0,0 -1e-5,-8.12227 -1e-5,-8.12227 0,0 -0.13026,-1.86403 -0.13026,-1.86403 0,0 -0.22407,-3.46193 -0.22407,-3.46193 -0.0743,-0.62317 -0.0457,-1.49269 -0.58621,-1.91746 -0.31785,-0.249 -2.46077,-0.34488 -2.9675,-0.3462 0,0 -10.42149,-1e-5 -10.42149,-1e-5 0,0 -1.82375,-0.12783 -1.82375,-0.12783 0,0 -1.69349,0.12783 -1.69349,0.12783 0,0 -6.64372,0 -6.64372,0 0,0 -2.21453,-0.13315 -2.21453,-0.13315 0,0 -3.12646,-10e-6 -3.12646,-10e-6 0,0 -1.56323,0.0919 -1.56323,0.0919 0,0 -0.91185,0 -0.91185,0 0,0 -0.78164,0 -0.78164,0 0,0 -1.56321,-0.0851 -1.56321,-0.0851 0,0 -2.99618,-10e-6 -2.99618,-10e-6 0,0 -5.08046,0 -5.08046,0 0,0 -1.69349,0.11186 -1.69349,0.11186 0,0 -1.95402,-10e-6 -1.95402,-10e-6 0,0 -3.38698,2e-5 -3.38698,2e-5 0,0 -1.30271,-0.0945 -1.30271,-0.0945 0,0 -0.91187,1e-5 -0.91187,1e-5 0,0 -1.30269,0 -1.30269,0 0,0 -1.43294,0.0985 -1.43294,0.0985 0,0 -1.17244,-0.0945 -1.17244,-0.0945 0,0 -1.30265,0.10253 -1.30265,0.10253 0,0 -1.69349,-0.11185 -1.69349,-0.11185 0,0 -8.59773,0 -8.59773,0 -1.11119,0.18243 -2.50115,0.11452 -3.64752,0.15179 z m 68.64889,4.34476 c -0.3322,0.83756 -1.14638,0.90814 -1.79903,1.21706 -0.23316,0.11057 -0.42468,0.27963 -0.68521,0.33156 -1.34178,0.27295 -1.96965,-1.83492 -1.56582,-2.86544 0.23578,-0.60181 1.13335,-0.78825 1.70783,-0.9933 2.05823,-0.37419 2.58451,1.69759 2.34223,2.31012 z m -97.082597,-1.98388 c 0.287897,0.2197 0.347824,0.48601 0.495022,0.79751 0.14069,0.29688 0.351728,0.6098 0.411657,0.93204 0.201895,1.09721 -0.799851,1.42478 -1.653109,1.4594 -0.630505,0.0266 -1.443381,-0.0826 -1.898014,-0.57923 -0.242299,-0.26365 -0.294405,-0.5313 -0.310036,-0.88017 -0.0495,-1.05051 0.531493,-1.52981 1.426432,-1.91066 0.49894,-0.10514 1.091657,-0.15177 1.528048,0.18111 z M 185.68893,538.961 c 0.13414,0.31159 0.15769,0.97205 0.14464,1.31959 -0.0113,0.30627 -0.014,0.89615 -0.241,1.1132 -0.27225,0.25832 -0.53148,0.0266 -0.98741,0.15176 -0.71388,0.19838 -2.15596,1.07309 -2.71349,0.9386 -1.13597,-0.27294 -1.78079,-2.24752 -1.24668,-3.2502 0.22407,-0.41945 0.70735,-0.47004 1.1164,-0.59653 1.67395,-0.51783 2.50376,-0.11985 2.99617,1.64314 0,0 0.26056,6e-5 0.26056,6e-5 0.2957,-1.55529 -0.87804,-1.62451 -1.30269,-2.79614 0.75946,0.0626 1.66091,0.75098 1.97353,1.47655 z m -99.159029,-0.21039 c 0.504132,0.12383 1.306594,1.04395 1.5059,1.53132 0.248817,0.60985 0.265747,1.32624 -0.463754,1.55927 -0.664363,0.213 -2.279706,0.3181 -2.830733,-0.16379 -0.749048,-0.65514 -0.198015,-1.94809 0.403826,-2.5007 0.264446,-0.24368 0.418164,-0.29695 0.73862,-0.42609 0.243618,-0.0306 0.393449,-0.0745 0.646141,-10e-6 z"
       id="Selection #1"
       inkscape:connector-curvature="0"
       style="fill:none;stroke:#000000;stroke-width:0.13170207;display:inline" />
  </g>
  <g
     style="display:inline"
     id="layer1"
     inkscape:groupmode="layer"
     inkscape:label="Frame_cut">
    <g
       id="g4330"
       transform="translate(4.9290935,-3.0806846)"
       style="stroke-width:0.03543307;stroke-miterlimit:4;stroke-dasharray:none">
      <g
         id="g4323"
         style="stroke-width:0.03543307;stroke-miterlimit:4;stroke-dasharray:none"
         transform="matrix(1.016566,0,0,1.0111338,-0.54407091,-6.8393663)">
        <g
           style="stroke-width:0.03543307;stroke-miterlimit:4;stroke-dasharray:none;display:inline"
           id="g4292"
           transform="translate(-0.12327352,0.10728553)" />
      </g>
      <g
         inkscape:groupmode="layer"
         id="layer6"
         inkscape:label="motor_reinforcement"
         style="display:inline">
        <path
           inkscape:connector-curvature="0"
           style="fill:none;stroke:#ff0000;stroke-width:0.04251969;stroke-linecap:butt;stroke-linejoin:miter;stroke-miterlimit:4;stroke-opacity:1;stroke-dasharray:none;display:inline"
           d="m 343.42157,443.53593 c 1.72241,0.98534 4.56488,0.77557 6.47335,0.77561 l 12.66827,0 38.53841,0.37344 c 8.92072,0.69124 14.68286,-0.0411 21.97224,8.07207 1.08211,1.20387 2.52175,3.69435 3.5267,5.74524 l 5.22043,-6.46339 c 5.77507,-7.15009 4.13156,-21.24615 -3.13227,-34.90237 -0.26784,0.82795 -0.56242,1.66424 -0.90487,2.49919 -0.86716,2.11287 -2.91021,5.84735 -4.31555,7.41137 -7.28943,8.11316 -13.07476,7.40958 -21.99545,8.10079 l -38.49203,0.37344 -12.69144,-0.0287 c -1.90845,3e-5 -4.75096,-0.20975 -6.47335,0.77561 l -0.39444,7.26773 z"
           id="path3102-6-3-5-8" />
        <path
           inkscape:connector-curvature="0"
           style="fill:none;stroke:#ff0000;stroke-width:0.04139759;stroke-linecap:butt;stroke-linejoin:miter;stroke-miterlimit:4;stroke-opacity:1;stroke-dasharray:none;display:inline"
           d="m 376.51458,420.08691 c -1.72241,-0.98534 -4.56488,-0.77557 -6.47335,-0.77561 l -12.66827,0 -38.53841,-0.37344 c -8.92072,-0.69124 -14.68286,0.0411 -21.97224,-8.07207 -1.08211,-1.20387 -2.52175,-3.69435 -3.5267,-5.74524 l -5.22043,6.46339 c -5.77507,7.15009 -4.13156,21.24615 3.13227,34.90237 0.26784,-0.82795 0.56242,-1.66424 0.90487,-2.49919 0.86716,-2.11287 2.91021,-5.84735 4.31555,-7.41137 7.28943,-8.11316 13.07476,-7.40958 21.99545,-8.10079 l 38.49203,-0.37344 12.69144,0.0287 c 1.90845,-3e-5 4.75096,0.20975 6.47335,-0.77561 l 0.39444,-7.26773 z"
           id="path3102-6-3-5-8-8" />
        <path
           inkscape:connector-curvature="0"
           style="fill:none;stroke:#ff0000;stroke-width:0.04251969;stroke-linecap:butt;stroke-linejoin:miter;stroke-miterlimit:4;stroke-opacity:1;stroke-dasharray:none;display:inline"
           d="m 356.29584,474.86331 c 1.72241,0.98534 4.56488,0.77557 6.47335,0.77561 l 12.66827,0 38.53842,0.37344 c 8.92072,0.69124 14.68286,-0.0411 21.97224,8.07207 1.08211,1.20387 2.52175,3.69435 3.5267,5.74524 l 5.22043,-6.46339 c 5.77507,-7.15009 4.13156,-21.24615 -3.13227,-34.90237 -0.26784,0.82795 -0.56242,1.66424 -0.90487,2.49919 -0.86716,2.11287 -2.91021,5.84735 -4.31555,7.41137 -7.28943,8.11316 -13.07476,7.40958 -21.99545,8.10079 l -38.49204,0.37344 -12.69144,-0.0287 c -1.90845,3e-5 -4.75096,-0.20975 -6.47335,0.77561 l -0.39444,7.26773 z"
           id="path3102-6-3-5-8-2" />
        <path
           inkscape:connector-curvature="0"
           style="fill:none;stroke:#ff0000;stroke-width:0.04139759;stroke-linecap:butt;stroke-linejoin:miter;stroke-miterlimit:4;stroke-opacity:1;stroke-dasharray:none;display:inline"
           d="m 397.54255,451.84343 c -1.72241,-0.98534 -4.56488,-0.77557 -6.47335,-0.77561 l -12.66827,0 -38.53841,-0.37344 c -8.92072,-0.69124 -14.68286,0.0411 -21.97224,-8.07207 -1.08211,-1.20387 -2.52175,-3.69435 -3.5267,-5.74524 l -5.22043,6.46339 c -5.77507,7.15009 -4.13156,21.24615 3.13227,34.90237 0.26784,-0.82795 0.56242,-1.66424 0.90487,-2.49919 0.86716,-2.11287 2.91021,-5.84735 4.31555,-7.41137 7.28943,-8.11316 13.07476,-7.40958 21.99545,-8.10079 l 38.49203,-0.37344 12.69144,0.0287 c 1.90845,-3e-5 4.75096,0.20975 6.47335,-0.77561 l 0.39444,-7.26773 z"
           id="path3102-6-3-5-8-8-2" />
      </g>
      <g
         inkscape:groupmode="layer"
         id="layer7"
         inkscape:label="motor braces"
         style="display:inline">
        <path
           style="fill:none;stroke:#ff0000;stroke-width:0.03659262;stroke-miterlimit:4;stroke-opacity:1;stroke-dasharray:none"
           d="m 256.08128,512.94645 6.21875,6.03125 173.78125,0 5.875,-6.03125 -185.875,0 z"
           id="rect3913"
           inkscape:connector-curvature="0" />
        <path
           inkscape:connector-curvature="0"
           style="fill:none;stroke:#ff0000;stroke-width:0.03659262;stroke-miterlimit:4;stroke-opacity:1;stroke-dasharray:none;display:inline"
           d="m 260.46706,525.3469 6.21875,6.03125 173.78126,0 5.875,-6.03125 -185.87501,0 z"
           id="rect3913-5" />
        <path
           inkscape:connector-curvature="0"
           style="fill:none;stroke:#ff0000;stroke-width:0.03257377;stroke-miterlimit:4;stroke-opacity:1;stroke-dasharray:none;display:inline"
           d="m 280.04443,485.95965 4.92779,6.03125 137.70572,0 4.6554,-6.03125 -147.28891,0 z"
           id="rect3913-5-6" />
        <path
           inkscape:connector-curvature="0"
           style="fill:none;stroke:#ff0000;stroke-width:0.03257377;stroke-miterlimit:4;stroke-opacity:1;stroke-dasharray:none;display:inline"
           d="m 281.47668,498.83392 4.92779,6.03125 137.70572,0 4.6554,-6.03125 -147.28891,0 z"
           id="rect3913-5-6-6" />
      </g>
    </g>
    <text
       id="text3071"
       y="0"
       x="0">
      <textPath
         id="textPath3073"
         dy="-6"
         startOffset="50%"
         xlink:href="#Selection #1"
         style="font-size:12px;font-style:normal;font-weight:normal;text-align:center;text-anchor:middle;fill:#000000;fill-opacity:1;stroke:none">203,55 mm</textPath>
    </text>
  </g>
  <g
     inkscape:groupmode="layer"
     id="layer4"
     inkscape:label="MPU-6050"
     style="display:none">
    <path
       d="m 162.62761,478.53875 c 0,0 0,71.83634 0,71.83634 0,0 -55.14744,0 -55.14744,0 0,0 0,-71.83634 0,-71.83634 0,0 55.14744,0 55.14744,0 z m -3.60652,7.64375 c 0.5661,1.04637 0.76724,2.0831 0.75407,3.26529 -0.008,0.64638 -0.18138,1.32243 -0.39056,1.92949 -0.23698,0.68496 -0.66631,1.39813 -1.15196,1.92949 -0.5661,0.61965 -1.14098,1.0664 -1.89505,1.42632 -0.93034,0.44378 -1.83508,0.58924 -2.85246,0.57736 -0.58146,-0.007 -1.20607,-0.1588 -1.75535,-0.34655 -3.37979,-1.154 -4.93256,-5.08644 -3.48805,-8.33614 0.92815,-2.08829 2.64182,-3.17103 4.80456,-3.53022 2.37851,-0.29832 4.81919,0.9499 5.9748,3.08496 z m -4.95084,49.88542 c 0.59097,-0.0126 1.12635,0.10983 1.68223,0.3065 3.64967,1.29423 4.71458,5.95767 2.24539,8.8801 -0.49809,0.58922 -1.11831,1.0241 -1.80656,1.35211 -0.83453,0.39704 -1.57617,0.51355 -2.48676,0.50316 -0.73067,-0.009 -1.54178,-0.24934 -2.19419,-0.57587 -2.56941,-1.28534 -3.6665,-4.39701 -2.60012,-7.06787 0.77601,-1.94358 2.36022,-3.05082 4.35548,-3.39813 0,0 0.80453,0 0.80453,0 z"
       inkscape:connector-curvature="0"
       style="fill:none;stroke:#000000;stroke-width:0.0736735;display:inline"
       id="Selection #2" />
  </g>
  <g
     inkscape:groupmode="layer"
     id="layer5"
     inkscape:label="MPU_6050_cut"
     style="display:inline">
    <g
       id="g3163"
       style="fill:none;stroke:#ff0000;stroke-width:0.03543307;stroke-miterlimit:4;stroke-opacity:1;stroke-dasharray:none"
       transform="translate(0,-2.8582842)">
      <path
         id="path3122-9-3"
         style="stroke:#ff0000;stroke-width:0.03543307;stroke-linecap:butt;stroke-linejoin:miter"
         d="m 152.51108,554.86398 c -0.55045,3.12173 -3.52733,5.20617 -6.64907,4.65572 -3.12173,-0.55044 -5.20617,-3.52733 -4.65573,-6.64906 0.55045,-3.12174 3.52734,-5.20618 6.64907,-4.65574 3.12174,0.55045 5.20617,3.52734 4.65573,6.64908 z m 8.66878,-51.63446 c -0.55044,3.12172 -3.52733,5.20617 -6.64906,4.65572 -3.12173,-0.55044 -5.20617,-3.52734 -4.65573,-6.64907 0.55045,-3.12173 3.52734,-5.20618 6.64907,-4.65573 3.12174,0.55045 5.20617,3.52734 4.65572,6.64908 z m -98.509249,6.40014 c -0.340263,1.92973 -2.188915,3.21686 -4.129055,2.87475 -1.940277,-0.34139 -3.237083,-2.18385 -2.896817,-4.11359 0.340269,-1.92977 2.188914,-3.21687 4.129052,-2.87476 1.940259,0.34148 3.237086,2.18385 2.89682,4.1136 z m 152.825909,27.64999 c -0.33964,1.92985 -2.18891,3.2168 -4.12906,2.87469 -1.9403,-0.34139 -3.23708,-2.18381 -2.89681,-4.11358 0.33956,-1.92996 2.18888,-3.21684 4.12907,-2.87474 1.94024,0.34138 3.23708,2.18383 2.8968,4.11363 z m -90.76383,64.43929 c -0.33957,1.92999 -2.18893,3.21684 -4.12907,2.87474 -1.94024,-0.34138 -3.23708,-2.18378 -2.89683,-4.11358 0.33964,-1.92989 2.18893,-3.21682 4.12905,-2.87472 1.94032,0.34138 3.23709,2.18381 2.89685,4.11356 z m 27.71069,-157.15515 c -0.33955,1.92992 -2.18894,3.21687 -4.12902,2.87476 -1.94028,-0.34138 -3.23715,-2.18384 -2.89686,-4.1136 0.33964,-1.92988 2.18894,-3.21684 4.12904,-2.87475 1.94029,0.34139 3.23712,2.18385 2.89684,4.11359 z M 49.658506,503.7703 c 2.007787,-1.67738 10.45434,-2.43838 13.578091,-3.20173 10.474932,-2.55523 21.080476,-4.53992 26.661371,-14.96128 0.870232,-1.62606 2.145665,-4.89451 2.365111,-6.70104 1.140241,-9.37006 -2.528226,-13.60335 -7.045265,-20.95396 l -21.18798,-30.56578 -7.044045,-10.00279 c -1.061008,-1.50668 -2.78117,-3.6771 -3.108052,-5.47597 l 4.42087,-3.54109 c 1.588213,0.92069 3.051087,3.27024 4.112093,4.77691 l 7.044046,10.00282 21.639793,30.25117 c 5.40186,6.73461 8.147879,11.61011 17.393161,13.74952 1.7824,0.41255 5.30749,0.33903 7.14188,0.0821 11.75762,-1.65017 17.26067,-10.88063 23.25819,-19.79391 1.78977,-2.65756 5.398,-10.28929 7.66993,-11.59157 1.38259,-0.7856 2.38781,-0.67953 3.88145,-0.60781 1.42811,0.44349 2.40899,0.6876 3.43952,1.89869 1.68951,2.00079 2.46993,10.40636 3.24278,13.51578 2.58737,10.42705 4.60149,20.98297 15.08568,26.55494 1.6359,0.86884 4.92322,2.14386 6.73926,2.36554 9.41945,1.15169 13.66734,-2.4906 21.04682,-6.97149 l 30.68126,-21.02562 10.0404,-6.99037 c 1.51235,-1.0529 3.69057,-2.76043 5.49792,-3.08241 l 2.94313,4.83961 c -0.92242,1.57858 -3.28119,3.02978 -4.79349,4.0827 l -10.04041,6.99033 -30.36431,21.47571 c -6.75868,5.36239 -11.65378,8.08572 -13.78706,17.28068 -0.41135,1.77263 -0.33102,5.28017 -0.0694,7.10585 1.67999,11.70159 10.96716,17.19392 19.93642,23.17773 2.67433,1.78564 10.35116,5.38972 11.66419,7.65258 0.7921,1.37713 0.68732,2.37709 0.61474,3.86022 -0.44635,1.41723 -0.68991,2.39272 -1.90525,3.41588 -2.00777,1.67734 -10.45436,2.43839 -13.57808,3.20175 -10.47498,2.55519 -21.08048,4.53994 -26.66133,14.96128 -0.87025,1.62601 -2.14569,4.89447 -2.36517,6.70104 -1.14026,9.37005 2.52821,13.60337 7.04527,20.95398 l 21.18799,30.56577 7.04405,10.00282 c 1.06101,1.50656 2.78115,3.67707 3.10806,5.47592 l -4.42085,3.54106 c -1.58826,-0.92064 -3.05113,-3.27018 -4.11213,-4.77689 l -7.04403,-10.00282 -21.6398,-30.25114 c -5.40185,-6.73462 -8.14786,-11.61016 -17.39316,-13.74951 -1.78247,-0.41254 -5.30751,-0.33905 -7.14185,-0.0822 -11.75769,1.65021 -17.26069,10.88062 -23.25823,19.79395 -1.78978,2.65752 -5.39796,10.2893 -7.66992,11.59152 -1.3826,0.7856 -2.38783,0.67957 -3.88145,0.60781 -1.42808,-0.44341 -2.40899,-0.68764 -3.43951,-1.89865 -1.68956,-2.00079 -2.46995,-10.40637 -3.24277,-13.51576 -2.5874,-10.42709 -4.6015,-20.98297 -15.085694,-26.55498 -1.635887,-0.86882 -4.9232,-2.14384 -6.739249,-2.36555 -9.419457,-1.15165 -13.667384,2.49063 -21.046843,6.97152 L 39.39538,593.57874 29.354985,600.5691 c -1.512328,1.05292 -3.690592,2.76051 -5.497899,3.0824 l -2.943123,-4.8396 c 0.92241,-1.57855 3.281155,-3.02973 4.793502,-4.0827 l 10.040384,-6.99036 30.364308,-21.47569 c 6.758684,-5.3624 11.653782,-8.08565 13.787045,-17.28061 0.411605,-1.77262 0.331014,-5.2802 0.06941,-7.10588 -1.680011,-11.70158 -10.967153,-17.19391 -19.93643,-23.17772 -2.674291,-1.78564 -10.351167,-5.38971 -11.664174,-7.65258 -0.792096,-1.37714 -0.687337,-2.3771 -0.614726,-3.86021 0.446321,-1.41725 0.689889,-2.39275 1.90522,-3.41589 z M 133.377,571.03228 c -0.67936,3.85288 -4.36924,6.42275 -8.24158,5.73995 -3.87232,-0.6828 -6.46073,-4.35969 -5.78137,-8.21258 0.67937,-3.85288 4.36926,-6.42274 8.24158,-5.73994 3.87233,0.68279 6.46074,4.35969 5.78137,8.21257 z m 16.52356,-93.70976 c -0.67937,3.85288 -4.36924,6.42276 -8.24158,5.73996 -3.87232,-0.68279 -6.46073,-4.3597 -5.78136,-8.21258 0.67937,-3.85287 4.36924,-6.42275 8.24157,-5.73995 3.87234,0.6828 6.46074,4.3597 5.78137,8.21257 z"
         inkscape:connector-curvature="0" />
    </g>
  </g>
</svg>
